<svg id="Capa_1" enable-background="new 0 0 512 512" height="512" viewBox="0 0 512 512" width="512" xmlns="http://www.w3.org/2000/svg"><g><g><path clip-rule="evenodd" d="m275.5 133.418-11.056 80.758 62.791-29.253h166.771c4.394 0 7.994-3.6 7.994-7.994v-158.935c0-4.394-3.6-7.994-7.994-7.994h-210.512c-4.394 0-7.994 3.6-7.994 7.994z" fill="#ecf2f3" fill-rule="evenodd"/></g><g><path clip-rule="evenodd" d="m232.694 288.527c-107.637 11.593-191.462 102.726-191.462 213.473h136.637v-46.317h52.075 52.075 52.075v46.317h136.637c0-110.747-83.825-201.88-191.49-213.473v20.664c0 5.414-4.422 9.864-9.865 9.864h-26.817c-5.414 0-9.865-4.45-9.865-9.864zm-49.779 114.801c-13.295 0-24.096-10.8-24.096-24.094 0-13.323 10.801-24.122 24.096-24.122 13.324 0 24.096 10.8 24.096 24.122 0 13.294-10.772 24.094-24.096 24.094zm123.229-24.094c0-13.323 10.801-24.122 24.096-24.122 13.324 0 24.096 10.8 24.096 24.122 0 13.294-10.772 24.094-24.096 24.094-13.296 0-24.096-10.8-24.096-24.094z" fill="#bfdbff" fill-rule="evenodd"/></g><g><path clip-rule="evenodd" d="m182.915 355.111c-13.295 0-24.096 10.8-24.096 24.122 0 13.294 10.801 24.094 24.096 24.094 13.324 0 24.096-10.8 24.096-24.094 0-13.322-10.772-24.122-24.096-24.122z" fill="#ffcd69" fill-rule="evenodd"/></g><g><path clip-rule="evenodd" d="m177.869 455.683h52.075v46.317h-52.075z" fill="#ecf2f3" fill-rule="evenodd"/></g><g><path clip-rule="evenodd" d="m229.945 455.683h52.075v46.317h-52.075z" fill="#ecf2f3" fill-rule="evenodd"/></g><g><path clip-rule="evenodd" d="m282.02 455.683h52.075v46.317h-52.075z" fill="#ecf2f3" fill-rule="evenodd"/></g><g><path clip-rule="evenodd" d="m330.239 355.111c-13.295 0-24.096 10.8-24.096 24.122 0 13.294 10.801 24.094 24.096 24.094 13.324 0 24.096-10.8 24.096-24.094 0-13.322-10.772-24.122-24.096-24.122z" fill="#ffcd69" fill-rule="evenodd"/></g><g><path clip-rule="evenodd" d="m242.559 264.348c-5.414 0-9.865 4.45-9.865 9.864v14.315 20.664c0 5.414 4.451 9.864 9.865 9.864h26.817c5.443 0 9.865-4.45 9.865-9.864v-20.664-14.315c0-5.414-4.422-9.864-9.865-9.864z" fill="#80b6ff" fill-rule="evenodd"/></g><g><path clip-rule="evenodd" d="m18.242 264.263c-11.027 11.055-11.027 28.941 0 39.996 11.027 11.027 28.943 11.027 39.971 0 11.056-11.055 11.056-28.941 0-39.996-11.027-11.027-28.943-11.027-39.971 0z" fill="#ffe6b4" fill-rule="evenodd"/></g><g><path clip-rule="evenodd" d="m453.723 264.263c-11.027 11.055-11.027 28.941 0 39.996 11.056 11.027 28.943 11.027 39.999 0 11.027-11.055 11.027-28.941 0-39.996-11.056-11.027-28.943-11.027-39.999 0z" fill="#ffe6b4" fill-rule="evenodd"/></g><g><path d="m494.005 0h-210.511c-9.922 0-17.995 8.072-17.995 17.994v114.743l-10.963 80.083c-1.051 7.679 7.075 13.708 14.132 10.421l60.783-28.317h164.555c9.922 0 17.995-8.072 17.995-17.994v-158.936c-.001-9.922-8.073-17.994-17.996-17.994zm-2.006 174.923h-164.764c-1.459 0-2.901.319-4.223.936l-46.173 21.511 8.569-62.595c.062-.449.092-.902.092-1.356v-113.419h206.499z"/><path d="m430.307 65.41h24.436c5.523 0 10.001-4.477 10.001-10s-4.477-10-10.001-10h-24.436c-5.523 0-10.001 4.477-10.001 10s4.478 10 10.001 10z"/><path d="m322.727 65.41h67.298c5.523 0 10.001-4.477 10.001-10s-4.477-10-10.001-10h-67.298c-5.523 0-10.001 4.477-10.001 10s4.478 10 10.001 10z"/><path d="m454.743 87.447h-75.632c-5.523 0-10.001 4.477-10.001 10s4.477 10 10.001 10h75.632c5.523 0 10.001-4.477 10.001-10s-4.477-10-10.001-10z"/><path d="m322.727 107.447h16.045c5.523 0 10.001-4.477 10.001-10s-4.477-10-10.001-10h-16.045c-5.523 0-10.001 4.477-10.001 10s4.478 10 10.001 10z"/><path d="m454.743 129.484h-37.164c-5.523 0-10.001 4.477-10.001 10s4.477 10 10.001 10h37.164c5.523 0 10.001-4.477 10.001-10s-4.477-10-10.001-10z"/><path d="m322.727 149.484h54.598c5.523 0 10.001-4.477 10.001-10s-4.477-10-10.001-10h-54.598c-5.523 0-10.001 4.477-10.001 10s4.478 10 10.001 10z"/><path d="m500.784 257.183c-14.922-14.882-39.201-14.883-54.142.018-12.44 12.471-14.474 31.476-6.108 46.104l-32.854 32.851c-32.779-30.026-73.883-49.802-118.439-56.409v-5.535c0-10.954-8.912-19.865-19.865-19.865h-26.817c-10.954 0-19.865 8.911-19.865 19.865v5.527c-44.268 6.576-85.413 26.251-118.394 56.437l-32.877-32.854c3.31-5.74 5.082-12.264 5.082-19.062 0-10.22-3.985-19.833-11.221-27.069-14.919-14.917-39.195-14.917-54.113 0-.003.003-.006.006-.009.009-14.884 14.921-14.884 39.2.009 54.129 7.223 7.222 16.832 11.199 27.057 11.199 6.797 0 13.317-1.767 19.05-5.067l32.879 32.856c-8.221 8.981-15.717 18.612-22.381 28.803-6.607 10.104-12.396 20.743-17.29 31.779-4.862 10.964-8.841 22.318-11.887 33.918-2.535 9.655-4.423 19.479-5.652 29.386-.623 5.025-1.077 10.071-1.361 15.127-.138 2.466-.236 4.934-.293 7.402-.053 2.253-.23 4.584.106 6.821.723 4.815 4.959 8.445 9.834 8.445h429.499c5.523 0 10.001-4.477 10.001-10 0-13.405-1.208-26.896-3.589-40.099-.981-5.436-6.185-9.046-11.617-8.066-5.435.98-9.047 6.181-8.067 11.616 1.579 8.754 2.592 17.647 3.027 26.549h-116.391v-36.317c0-5.523-4.477-10-10.001-10h-156.226c-5.523 0-10.001 4.477-10.001 10v36.319h-116.396c4.629-96.628 75.987-176.554 171.222-192.024v9.215c0 10.954 8.912 19.865 19.865 19.865h26.817c10.954 0 19.865-8.911 19.865-19.865v-9.223c55.315 9.025 104.547 40.411 136.33 87.313 1.934 2.854 5.082 4.391 8.288 4.391 1.93 0 3.882-.558 5.601-1.723 4.572-3.098 5.767-9.316 2.669-13.888-6.191-9.136-12.999-17.722-20.328-25.742l32.872-32.87c5.875 3.361 12.456 5.049 19.042 5.049 9.805 0 19.615-3.726 27.086-11.178 14.884-14.92 14.884-39.199 0-54.12-.005-.005-.011-.012-.017-.017zm-449.643 40.005c-3.445 3.444-8.031 5.341-12.913 5.341-4.883 0-9.469-1.897-12.905-5.332-7.115-7.132-7.116-18.737-.002-25.87 7.121-7.111 18.703-7.11 25.82.007 3.459 3.458 5.363 8.049 5.363 12.927s-1.904 9.469-5.363 12.927zm240.879 168.495h32.074v26.317h-32.074zm-52.075 0h32.074v26.317h-32.074zm-52.075 0h32.074v26.317h-32.074zm81.371-156.627h-26.546v-34.708h26.546zm217.418-11.877c-7.134 7.115-18.74 7.115-25.856.018-7.115-7.133-7.115-18.739-.018-25.854 3.567-3.558 8.251-5.336 12.937-5.336 4.68 0 9.362 1.776 12.927 5.327 7.107 7.134 7.104 18.733.01 25.845z"/><path d="m148.819 379.234c0 18.799 15.295 34.094 34.096 34.094s34.097-15.294 34.097-34.094c0-18.815-15.296-34.123-34.097-34.123s-34.096 15.307-34.096 34.123zm48.192 0c0 7.771-6.323 14.094-14.096 14.094-7.772 0-14.095-6.322-14.095-14.094 0-7.787 6.323-14.123 14.095-14.123 7.773 0 14.096 6.336 14.096 14.123z"/><path d="m296.143 379.234c0 18.799 15.295 34.094 34.096 34.094s34.097-15.294 34.097-34.094c0-18.815-15.296-34.123-34.097-34.123s-34.096 15.307-34.096 34.123zm48.192 0c0 7.771-6.323 14.094-14.096 14.094-7.772 0-14.095-6.322-14.095-14.094 0-7.787 6.323-14.123 14.095-14.123 7.773 0 14.096 6.336 14.096 14.123z"/><path d="m450.384 411.901c-4.94 2.47-6.942 8.477-4.472 13.417l.028.057c1.749 3.497 5.263 5.507 8.919 5.507 1.508 0 3.041-.342 4.484-1.063 4.94-2.47 6.928-8.505 4.458-13.445-2.469-4.94-8.475-6.942-13.417-4.473z"/></g></g></svg>